<?xml version="1.0" standalone="no"?>
<!DOCTYPE svg PUBLIC "-//W3C//DTD SVG 20010904//EN"
 "http://www.w3.org/TR/2001/REC-SVG-20010904/DTD/svg10.dtd">
<svg version="1.0" xmlns="http://www.w3.org/2000/svg"
 width="700.000000pt" height="700.000000pt" viewBox="0 0 700.000000 700.000000"
 preserveAspectRatio="xMidYMid meet">
<metadata>
Created by potrace 1.14, written by Peter Selinger 2001-2017
</metadata>
<g transform="translate(0.000000,700.000000) scale(0.100000,-0.100000)"
fill="#000000" stroke="none">
<path d="M3493 6768 c-5 -7 -59 -97 -119 -201 -60 -103 -140 -240 -177 -305
-38 -64 -81 -138 -95 -163 -30 -51 -168 -286 -182 -309 -5 -8 -37 -62 -70
-120 -33 -58 -65 -112 -70 -120 -4 -8 -65 -112 -135 -232 -69 -119 -131 -218
-138 -220 -7 -2 -425 -3 -929 -3 -505 1 -918 0 -918 -2 0 -2 79 -140 176 -306
97 -166 184 -315 194 -332 9 -16 137 -236 283 -488 147 -251 267 -462 267
-468 0 -6 -22 -48 -49 -93 -26 -44 -187 -319 -356 -611 -169 -291 -321 -552
-338 -580 -16 -27 -41 -70 -55 -95 -14 -25 -47 -81 -73 -125 -26 -44 -45 -83
-43 -86 2 -3 418 -5 926 -5 l923 1 61 -105 c33 -58 107 -184 163 -280 57 -96
112 -191 123 -210 11 -19 50 -86 87 -148 75 -128 68 -115 141 -242 30 -52 60
-103 65 -112 6 -9 28 -47 50 -85 51 -88 42 -71 174 -298 108 -185 131 -220
131 -196 0 6 25 51 55 101 30 50 65 109 77 131 13 23 28 49 33 58 6 9 41 70
79 136 38 66 77 131 86 145 9 14 31 50 47 80 17 30 127 219 245 420 118 201
244 418 282 482 42 73 74 118 84 119 10 0 427 1 929 1 829 1 911 3 905 17 -3
9 -48 88 -99 175 -51 87 -93 160 -93 162 0 2 -17 31 -39 66 -109 177 -681
1169 -681 1181 0 8 10 30 23 48 13 19 30 48 39 64 8 17 62 109 118 205 57 96
114 195 128 220 14 25 43 73 64 108 21 34 38 65 38 68 0 3 8 18 19 32 10 15
27 43 37 62 11 19 38 67 61 105 69 117 244 417 271 465 14 25 45 78 69 119 24
41 45 80 46 85 1 8 -277 11 -923 12 l-925 0 -243 415 c-133 227 -270 463 -305
522 -34 60 -72 125 -85 145 -12 20 -25 44 -29 52 -4 8 -23 42 -44 75 -42 68
-246 418 -264 453 -10 17 -15 19 -22 10z m284 -1227 c139 -238 253 -436 253
-440 0 -8 -1057 -7 -1065 1 -4 4 338 591 413 708 9 14 25 41 36 60 10 19 34
59 53 89 32 50 36 53 46 35 6 -10 124 -214 264 -453z m-1501 -844 c3 -3 -15
-38 -39 -79 -25 -40 -54 -89 -65 -108 -136 -239 -362 -614 -369 -612 -4 1 -17
18 -28 37 -11 19 -114 195 -230 391 -115 196 -211 360 -213 365 -2 4 7 9 20
11 39 5 918 1 924 -5z m1970 4 c17 -1 56 -61 194 -298 96 -164 179 -307 185
-318 6 -11 36 -63 66 -115 171 -290 269 -461 269 -469 0 -9 -53 -102 -329
-576 -68 -115 -177 -303 -243 -417 -77 -134 -126 -208 -136 -209 -10 0 -352
-1 -761 -2 -484 -1 -748 1 -756 8 -9 8 -182 299 -288 485 -10 19 -107 185
-213 367 -107 183 -194 337 -194 343 0 8 630 1099 685 1185 12 20 22 20 756
18 409 -1 753 -2 765 -2z m1420 -3 c3 -3 -32 -68 -77 -144 -45 -77 -149 -254
-231 -394 -82 -140 -153 -259 -157 -263 -7 -7 -52 61 -116 175 -5 10 -89 152
-185 315 -96 163 -176 300 -178 304 -2 4 5 9 14 11 29 5 924 2 930 -4z m-3743
-1783 c55 -93 117 -198 138 -233 22 -35 39 -65 39 -67 0 -2 41 -71 90 -155 50
-84 88 -155 86 -158 -5 -8 -934 -7 -942 1 -3 3 14 38 39 79 47 78 244 413 361
615 56 97 73 118 80 105 5 -9 54 -93 109 -187z m3328 106 c15 -25 115 -196
223 -380 108 -184 194 -336 191 -339 -2 -3 -215 -5 -472 -5 -393 0 -467 3
-465 14 3 13 122 219 360 623 119 202 103 193 163 87z m-1211 -1123 c0 -4 -31
-58 -68 -121 -38 -63 -72 -121 -76 -128 -3 -8 -14 -26 -24 -41 -17 -26 -52
-85 -262 -440 -58 -98 -108 -178 -111 -178 -3 0 -12 12 -20 27 -8 15 -71 125
-140 243 -69 118 -137 235 -151 260 -14 25 -69 119 -122 209 -53 90 -93 167
-87 170 13 8 1061 7 1061 -1z"/>
</g>
</svg>
